<?xml version="1.0" encoding="UTF-8"?>
<svg width="512px" height="512px" viewBox="0 0 512 512" xmlns="http://www.w3.org/2000/svg" xmlns:xlink="http://www.w3.org/1999/xlink" version="1.1">
 <!-- Generated by Pixelmator Pro 2.1.3 -->
 <defs>
  <linearGradient id="linear-gradient" gradientUnits="userSpaceOnUse" x1="316.078" y1="305.516" x2="215.25" y2="200.25">
   <stop offset="0.001" stop-color="#b800f2" stop-opacity="1"/>
   <stop offset="1" stop-color="#ff016e" stop-opacity="1"/>
  </linearGradient>
 </defs>
 <path id="Путь" d="M150 150 L362 150 362 362 150 362 Z M150 150" fill-opacity="1" fill="url(#linear-gradient)" stroke="none"/>
 <defs>
  <linearGradient id="linear-gradient-1" gradientUnits="userSpaceOnUse" x1="0" y1="256" x2="512" y2="256">
   <stop offset="0.001" stop-color="#b800f2" stop-opacity="1"/>
   <stop offset="1" stop-color="#ff016e" stop-opacity="1"/>
  </linearGradient>
 </defs>
 <path id="Путь-1" d="M497 211 C505.285 211 512 204.285 512 196 512 187.715 505.285 181 497 181 L452 181 452 151 497 151 C505.285 151 512 144.285 512 136 512 127.715 505.285 121 497 121 L452 121 452 95 C452 75.699 436.301 60 417 60 L391 60 391 15 C391 6.715 384.285 0 376 0 367.715 0 361 6.715 361 15 L361 60 331 60 331 15 C331 6.715 324.285 0 316 0 307.715 0 301 6.715 301 15 L301 60 271 60 271 15 C271 6.715 264.285 0 256 0 247.715 0 241 6.715 241 15 L241 60 211 60 211 15 C211 6.715 204.285 0 196 0 187.715 0 181 6.715 181 15 L181 60 151 60 151 15 C151 6.715 144.285 0 136 0 127.715 0 121 6.715 121 15 L121 60 95 60 C75.699 60 60 75.699 60 95 L60 121 15 121 C6.715 121 0 127.715 0 136 0 144.285 6.715 151 15 151 L60 151 60 181 15 181 C6.715 181 0 187.715 0 196 0 204.285 6.715 211 15 211 L60 211 60 241 15 241 C6.715 241 0 247.715 0 256 0 264.285 6.715 271 15 271 L60 271 60 301 15 301 C6.715 301 0 307.715 0 316 0 324.285 6.715 331 15 331 L60 331 60 361 15 361 C6.715 361 0 367.715 0 376 0 384.285 6.715 391 15 391 L60 391 60 417 C60 436.301 75.699 452 95 452 L121 452 121 497 C121 505.285 127.715 512 136 512 144.285 512 151 505.285 151 497 L151 452 181 452 181 497 C181 505.285 187.715 512 196 512 204.285 512 211 505.285 211 497 L211 452 241 452 241 497 C241 505.285 247.715 512 256 512 264.285 512 271 505.285 271 497 L271 452 301 452 301 497 C301 505.285 307.715 512 316 512 324.285 512 331 505.285 331 497 L331 452 361 452 361 497 C361 505.285 367.715 512 376 512 384.285 512 391 505.285 391 497 L391 452 417 452 C436.301 452 452 436.301 452 417 L452 391 497 391 C505.285 391 512 384.285 512 376 512 367.715 505.285 361 497 361 L452 361 452 331 497 331 C505.285 331 512 324.285 512 316 512 307.715 505.285 301 497 301 L452 301 452 271 497 271 C505.285 271 512 264.285 512 256 512 247.715 505.285 241 497 241 L452 241 452 211 Z M392 377 C392 385.285 385.285 392 377 392 L135 392 C126.715 392 120 385.285 120 377 L120 135 C120 126.715 126.715 120 135 120 L377 120 C385.285 120 392 126.715 392 135 Z M392 377" fill-opacity="1" fill="url(#linear-gradient-1)" stroke="none"/>
</svg>
